# xmcd
#
# Track frame offsets:
#	150
#	29220
#	60440
#	90077
#	126273
#	159649
#	184912
#	201016
#	244132
#	262383
#	278113
#	295682
#
# Disc length: 4135
#
# Revision: 2
# Processed by: cddbd v1.5.1PL0 Copyright (c) Steve Scherf et al.
# Submitted via: EasyCDDAExtractor 5.0.6
# Normalized: r1:DSETVAR1
#
DISCID=b210250c
DTITLE=Various Artist - DEE JAY MIX CLUB 2003 MARCH PART 3
DYEAR=2003
DGENRE=Acid Jazz
TTITLE0=89ERS - WAP BAM BOOGIE
TTITLE1=THE GRIM REAPER - THE ROOF IS ON FIRE
TTITLE2=SYLVER - LIVIN'MY LIFE(RMX)
TTITLE3=SASH!FEAT T.J.DAVIS - I BELIEVE
TTITLE4=LASGO - PRAY(RMX)
TTITLE5=GARDEWEG - I NEED MORE
TTITLE6=LAYO and BUSHWACKA - LOVE STORY VS.FINALLY
TTITLE7=MOLOKO - FAMILIAR FEELING(RMX)
TTITLE8=LAURA PAUSINI - SURRENDER
TTITLE9=SHAGGY - STRENGHT OF A WONAN(RMX)
TTITLE10=SARAH CONNOR - HE'S UNBELIVABLE
TTITLE11=50 CENT - IN DA CLUB
EXTD=
EXTT0=
EXTT1=
EXTT2=
EXTT3=
EXTT4=
EXTT5=
EXTT6=
EXTT7=
EXTT8=
EXTT9=
EXTT10=
EXTT11=
PLAYORDER=
